<svg width="366" height="69" viewBox="0 0 366 69" fill="none" xmlns="http://www.w3.org/2000/svg">
<rect width="365.772" height="68.0506" rx="3" fill="url(#paint0_linear)"/>
<path d="M64.27 0H65.2152V68.0506H64.27V0Z" fill="url(#paint1_linear)"/>
<path d="M41.8212 16.0752L37.0413 16.0675C31.6711 16.0675 28.2007 19.6281 28.2007 25.139V29.3215H23.3947C22.9794 29.3215 22.6431 29.6582 22.6431 30.0735V36.1336C22.6431 36.5489 22.9798 36.8852 23.3947 36.8852H28.2007V52.1767C28.2007 52.592 28.537 52.9283 28.9523 52.9283H35.2228C35.6381 52.9283 35.9744 52.5916 35.9744 52.1767V36.8852H41.5938C42.0091 36.8852 42.3454 36.5489 42.3454 36.1336L42.3477 30.0735C42.3477 29.8741 42.2683 29.6832 42.1276 29.542C41.9869 29.4009 41.7951 29.3215 41.5957 29.3215H35.9744V25.7759C35.9744 24.0718 36.3805 23.2067 38.6004 23.2067L41.8205 23.2055C42.2354 23.2055 42.5717 22.8688 42.5717 22.4539V16.8268C42.5717 16.4122 42.2358 16.0759 41.8212 16.0752Z" fill="white"/>
<path d="M90.7922 28.8763C91.9482 28.8763 92.9512 29.1086 93.8012 29.5733C94.6626 30.0379 95.3256 30.7179 95.7902 31.6133C96.2549 32.5086 96.4872 33.5796 96.4872 34.8263C96.4872 36.0956 96.2492 37.1779 95.7732 38.0733C95.3086 38.9686 94.6456 39.6486 93.7842 40.1133C92.9229 40.5666 91.9142 40.7933 90.7582 40.7933H86.6272V35.4213H85.7262V34.0273H86.6272V28.8763H90.7922ZM90.4012 38.9403C91.0132 38.9403 91.5969 38.8609 92.1522 38.7023C92.7076 38.5323 93.2006 38.1469 93.6312 37.5463C94.0732 36.9343 94.2942 36.0276 94.2942 34.8263C94.2942 33.1263 93.8976 32.0156 93.1042 31.4943C92.3222 30.9729 91.4212 30.7123 90.4012 30.7123H88.6332V34.0273H90.5712V35.4213H88.6332V38.9403H90.4012ZM101.433 40.9293C100.3 40.9293 99.4158 40.4986 98.7812 39.6373C98.1465 38.7759 97.8292 37.6539 97.8292 36.2713C97.8292 34.8659 98.1522 33.7383 98.7982 32.8883C99.4442 32.0269 100.34 31.5963 101.484 31.5963C102.266 31.5963 102.878 31.7776 103.32 32.1403C103.774 32.4916 104.097 32.8826 104.289 33.3133H104.425V31.8173H106.499V40.7933H104.425V39.1443H104.289C104.074 39.6089 103.74 40.0226 103.286 40.3853C102.833 40.7479 102.215 40.9293 101.433 40.9293ZM102.164 39.2293C102.901 39.2293 103.456 38.9403 103.83 38.3623C104.216 37.7843 104.408 37.0816 104.408 36.2543C104.408 35.4269 104.216 34.7299 103.83 34.1633C103.456 33.5853 102.901 33.2963 102.164 33.2963C101.405 33.2963 100.838 33.5853 100.464 34.1633C100.102 34.7299 99.9202 35.4269 99.9202 36.2543C99.9202 37.0816 100.107 37.7843 100.481 38.3623C100.855 38.9403 101.416 39.2293 102.164 39.2293ZM102.368 30.5253C101.654 30.5253 101.048 30.3609 100.549 30.0323C100.062 29.6923 99.6482 29.1936 99.3082 28.5363H101.008C101.28 29.0916 101.734 29.3693 102.368 29.3693C103.003 29.3693 103.456 29.0916 103.728 28.5363H105.428C105.088 29.1936 104.669 29.6923 104.17 30.0323C103.672 30.3609 103.071 30.5253 102.368 30.5253ZM108.729 31.8173H110.803V33.2793H110.922C111.137 32.8146 111.477 32.4179 111.942 32.0893C112.418 31.7606 112.996 31.5963 113.676 31.5963C114.832 31.5963 115.665 31.9703 116.175 32.7183C116.685 33.4663 116.94 34.3333 116.94 35.3193V40.7933H114.883V35.6423C114.883 34.9056 114.702 34.3389 114.339 33.9423C113.988 33.5343 113.5 33.3303 112.877 33.3303C112.208 33.3303 111.693 33.5456 111.33 33.9763C110.979 34.4069 110.803 34.9623 110.803 35.6423V40.7933H108.729V31.8173ZM123.288 44.4993C122.676 44.4993 122.149 44.4143 121.707 44.2443V42.5783C121.82 42.6123 122.007 42.6463 122.268 42.6803C122.529 42.7256 122.778 42.7483 123.016 42.7483C123.843 42.7483 124.438 42.5103 124.801 42.0343C125.164 41.5696 125.345 40.9803 125.345 40.2663V38.9403H125.209C124.994 39.3936 124.648 39.8016 124.172 40.1643C123.696 40.5156 123.09 40.6913 122.353 40.6913C121.616 40.6913 120.976 40.5043 120.432 40.1303C119.888 39.7449 119.469 39.2123 119.174 38.5323C118.879 37.8409 118.732 37.0476 118.732 36.1523C118.732 35.2456 118.879 34.4466 119.174 33.7553C119.469 33.0639 119.888 32.5313 120.432 32.1573C120.976 31.7719 121.616 31.5793 122.353 31.5793C123.112 31.5793 123.73 31.7719 124.206 32.1573C124.693 32.5313 125.028 32.9449 125.209 33.3983H125.345V31.8343H127.402V40.2663C127.402 40.8669 127.289 41.4846 127.062 42.1193C126.847 42.7539 126.433 43.3093 125.821 43.7853C125.209 44.2613 124.365 44.4993 123.288 44.4993ZM123.101 38.9913C123.826 38.9913 124.376 38.7079 124.75 38.1413C125.135 37.5633 125.328 36.8889 125.328 36.1183C125.328 35.3589 125.135 34.6959 124.75 34.1293C124.376 33.5626 123.826 33.2793 123.101 33.2793C122.364 33.2793 121.803 33.5626 121.418 34.1293C121.044 34.6846 120.857 35.3476 120.857 36.1183C120.857 36.9003 121.044 37.5746 121.418 38.1413C121.792 38.7079 122.353 38.9913 123.101 38.9913ZM133.465 31.8173H135.539V33.2793H135.658C135.874 32.8146 136.214 32.4179 136.678 32.0893C137.154 31.7606 137.732 31.5963 138.412 31.5963C139.568 31.5963 140.401 31.9703 140.911 32.7183C141.421 33.4663 141.676 34.3333 141.676 35.3193V40.7933H139.619V35.6423C139.619 34.9056 139.438 34.3389 139.075 33.9423C138.724 33.5343 138.237 33.3303 137.613 33.3303C136.945 33.3303 136.429 33.5456 136.066 33.9763C135.715 34.4069 135.539 34.9623 135.539 35.6423V40.7933H133.465V31.8173ZM143.858 28.1453H145.932V33.2793H146.051C146.266 32.8146 146.606 32.4179 147.071 32.0893C147.547 31.7606 148.125 31.5963 148.805 31.5963C149.961 31.5963 150.794 31.9703 151.304 32.7183C151.814 33.4663 152.069 34.3333 152.069 35.3193V40.7933H150.012V35.6423C150.012 34.9056 149.831 34.3389 149.468 33.9423C149.117 33.5343 148.618 33.3303 147.972 33.3303C147.36 33.3303 146.867 33.5456 146.493 33.9763C146.119 34.3956 145.932 34.9509 145.932 35.6423V40.7933H143.858V28.1453ZM157.397 40.9293C156.264 40.9293 155.38 40.4986 154.745 39.6373C154.11 38.7759 153.793 37.6539 153.793 36.2713C153.793 34.8659 154.116 33.7383 154.762 32.8883C155.408 32.0269 156.303 31.5963 157.448 31.5963C158.23 31.5963 158.842 31.7776 159.284 32.1403C159.737 32.4916 160.06 32.8826 160.253 33.3133H160.389V31.8173H162.463V40.7933H160.389V39.1443H160.253C160.038 39.6089 159.703 40.0226 159.25 40.3853C158.797 40.7479 158.179 40.9293 157.397 40.9293ZM158.128 39.2293C158.865 39.2293 159.42 38.9403 159.794 38.3623C160.179 37.7843 160.372 37.0816 160.372 36.2543C160.372 35.4269 160.179 34.7299 159.794 34.1633C159.42 33.5853 158.865 33.2963 158.128 33.2963C157.369 33.2963 156.802 33.5853 156.428 34.1633C156.065 34.7299 155.884 35.4269 155.884 36.2543C155.884 37.0816 156.071 37.7843 156.445 38.3623C156.819 38.9403 157.38 39.2293 158.128 39.2293ZM157.55 28.1113H159.131L161.511 30.7293H159.59L158.366 29.3863H158.298L157.108 30.7293H155.187L157.55 28.1113ZM158.332 44.8223C158.003 44.8223 157.726 44.7089 157.499 44.4823C157.284 44.2556 157.176 43.9836 157.176 43.6663C157.176 43.3489 157.284 43.0769 157.499 42.8503C157.726 42.6349 158.003 42.5273 158.332 42.5273C158.649 42.5273 158.921 42.6349 159.148 42.8503C159.375 43.0769 159.488 43.3489 159.488 43.6663C159.488 43.9836 159.375 44.2556 159.148 44.4823C158.921 44.7089 158.649 44.8223 158.332 44.8223ZM169.742 40.9293C168.971 40.9293 168.353 40.7479 167.889 40.3853C167.435 40.0113 167.101 39.5976 166.886 39.1443H166.75V44.2953H164.693V31.8173H166.75V33.3133H166.886C167.078 32.8826 167.401 32.4916 167.855 32.1403C168.308 31.7776 168.926 31.5963 169.708 31.5963C170.875 31.5963 171.776 32.0269 172.411 32.8883C173.045 33.7383 173.363 34.8659 173.363 36.2713C173.363 37.6539 173.045 38.7759 172.411 39.6373C171.776 40.4986 170.886 40.9293 169.742 40.9293ZM169.011 39.2633C169.77 39.2633 170.337 38.9743 170.711 38.3963C171.085 37.8069 171.272 37.0986 171.272 36.2713C171.272 35.4439 171.085 34.7469 170.711 34.1803C170.337 33.6023 169.77 33.3133 169.011 33.3133C168.274 33.3133 167.713 33.6023 167.328 34.1803C166.954 34.7469 166.767 35.4439 166.767 36.2713C166.767 37.0986 166.954 37.8069 167.328 38.3963C167.713 38.9743 168.274 39.2633 169.011 39.2633ZM184.218 40.9293C183.448 40.9293 182.83 40.7479 182.365 40.3853C181.912 40.0113 181.578 39.5976 181.362 39.1443H181.226V40.7933H179.169V28.0263H181.226V33.3133H181.362C181.555 32.8826 181.878 32.4916 182.331 32.1403C182.785 31.7776 183.402 31.5963 184.184 31.5963C185.352 31.5963 186.253 32.0269 186.887 32.8883C187.522 33.7383 187.839 34.8659 187.839 36.2713C187.839 37.6539 187.522 38.7759 186.887 39.6373C186.253 40.4986 185.363 40.9293 184.218 40.9293ZM183.487 39.2633C184.247 39.2633 184.813 38.9743 185.187 38.3963C185.561 37.8069 185.748 37.0986 185.748 36.2713C185.748 35.4439 185.561 34.7469 185.187 34.1803C184.813 33.6023 184.247 33.3133 183.487 33.3133C182.751 33.3133 182.19 33.6023 181.804 34.1803C181.43 34.7469 181.243 35.4439 181.243 36.2713C181.243 37.0986 181.43 37.8069 181.804 38.3963C182.19 38.9743 182.751 39.2633 183.487 39.2633ZM192.841 40.9293C191.708 40.9293 190.824 40.4986 190.189 39.6373C189.555 38.7759 189.237 37.6539 189.237 36.2713C189.237 34.8659 189.56 33.7383 190.206 32.8883C190.852 32.0269 191.748 31.5963 192.892 31.5963C193.674 31.5963 194.286 31.7776 194.728 32.1403C195.182 32.4916 195.505 32.8826 195.697 33.3133H195.833V31.8173H197.907V40.7933H195.833V39.1443H195.697C195.482 39.6089 195.148 40.0226 194.694 40.3853C194.241 40.7479 193.623 40.9293 192.841 40.9293ZM193.572 39.2293C194.309 39.2293 194.864 38.9403 195.238 38.3623C195.624 37.7843 195.816 37.0816 195.816 36.2543C195.816 35.4269 195.624 34.7299 195.238 34.1633C194.864 33.5853 194.309 33.2963 193.572 33.2963C192.813 33.2963 192.246 33.5853 191.872 34.1633C191.51 34.7299 191.328 35.4269 191.328 36.2543C191.328 37.0816 191.515 37.7843 191.889 38.3623C192.263 38.9403 192.824 39.2293 193.572 39.2293ZM193.827 30.5253C193.113 30.5253 192.507 30.3609 192.008 30.0323C191.521 29.6923 191.107 29.1936 190.767 28.5363H192.467C192.739 29.0916 193.193 29.3693 193.827 29.3693C194.462 29.3693 194.915 29.0916 195.187 28.5363H196.887C196.547 29.1936 196.128 29.6923 195.629 30.0323C195.131 30.3609 194.53 30.5253 193.827 30.5253ZM190.835 24.6433H192.926L194.609 27.8733L192.977 27.8903L190.835 24.6433ZM200.137 31.8173H202.211V33.2793H202.33C202.545 32.8146 202.885 32.4179 203.35 32.0893C203.826 31.7606 204.404 31.5963 205.084 31.5963C206.24 31.5963 207.073 31.9703 207.583 32.7183C208.093 33.4663 208.348 34.3333 208.348 35.3193V40.7933H206.291V35.6423C206.291 34.9056 206.11 34.3389 205.747 33.9423C205.396 33.5343 204.908 33.3303 204.285 33.3303C203.616 33.3303 203.101 33.5456 202.738 33.9763C202.387 34.4069 202.211 34.9623 202.211 35.6423V40.7933H200.137V31.8173ZM214.696 44.4993C214.084 44.4993 213.557 44.4143 213.115 44.2443V42.5783C213.229 42.6123 213.416 42.6463 213.676 42.6803C213.937 42.7256 214.186 42.7483 214.424 42.7483C215.252 42.7483 215.847 42.5103 216.209 42.0343C216.572 41.5696 216.753 40.9803 216.753 40.2663V38.9403H216.617C216.402 39.3936 216.056 39.8016 215.58 40.1643C215.104 40.5156 214.498 40.6913 213.761 40.6913C213.025 40.6913 212.384 40.5043 211.84 40.1303C211.296 39.7449 210.877 39.2123 210.582 38.5323C210.288 37.8409 210.14 37.0476 210.14 36.1523C210.14 35.2456 210.288 34.4466 210.582 33.7553C210.877 33.0639 211.296 32.5313 211.84 32.1573C212.384 31.7719 213.025 31.5793 213.761 31.5793C214.521 31.5793 215.138 31.7719 215.614 32.1573C216.102 32.5313 216.436 32.9449 216.617 33.3983H216.753V31.8343H218.81V40.2663C218.81 40.8669 218.697 41.4846 218.47 42.1193C218.255 42.7539 217.841 43.3093 217.229 43.7853C216.617 44.2613 215.773 44.4993 214.696 44.4993ZM214.509 38.9913C215.235 38.9913 215.784 38.7079 216.158 38.1413C216.544 37.5633 216.736 36.8889 216.736 36.1183C216.736 35.3589 216.544 34.6959 216.158 34.1293C215.784 33.5626 215.235 33.2793 214.509 33.2793C213.773 33.2793 213.212 33.5626 212.826 34.1293C212.452 34.6846 212.265 35.3476 212.265 36.1183C212.265 36.9003 212.452 37.5746 212.826 38.1413C213.2 38.7079 213.761 38.9913 214.509 38.9913ZM226.964 30.7123V33.9253H231.673V35.5403H226.964V40.7933H224.89V28.8933H232.302V30.7123H226.964ZM236.653 40.9293C235.52 40.9293 234.636 40.4986 234.001 39.6373C233.366 38.7759 233.049 37.6539 233.049 36.2713C233.049 34.8659 233.372 33.7383 234.018 32.8883C234.664 32.0269 235.559 31.5963 236.704 31.5963C237.486 31.5963 238.098 31.7776 238.54 32.1403C238.993 32.4916 239.316 32.8826 239.509 33.3133H239.645V31.8173H241.719V40.7933H239.645V39.1443H239.509C239.294 39.6089 238.959 40.0226 238.506 40.3853C238.053 40.7479 237.435 40.9293 236.653 40.9293ZM237.384 39.2293C238.121 39.2293 238.676 38.9403 239.05 38.3623C239.435 37.7843 239.628 37.0816 239.628 36.2543C239.628 35.4269 239.435 34.7299 239.05 34.1633C238.676 33.5853 238.121 33.2963 237.384 33.2963C236.625 33.2963 236.058 33.5853 235.684 34.1633C235.321 34.7299 235.14 35.4269 235.14 36.2543C235.14 37.0816 235.327 37.7843 235.701 38.3623C236.075 38.9403 236.636 39.2293 237.384 39.2293ZM247.926 40.9293C246.974 40.9293 246.175 40.7083 245.529 40.2663C244.895 39.8243 244.419 39.2519 244.101 38.5493C243.795 37.8353 243.642 37.0703 243.642 36.2543C243.642 35.4496 243.795 34.6959 244.101 33.9933C244.419 33.2793 244.895 32.7013 245.529 32.2593C246.175 31.8173 246.974 31.5963 247.926 31.5963C249.116 31.5963 250.051 31.9363 250.731 32.6163C251.423 33.2963 251.836 34.1463 251.972 35.1663H249.966C249.887 34.6109 249.677 34.1633 249.337 33.8233C248.997 33.4719 248.533 33.2963 247.943 33.2963C247.184 33.2963 246.617 33.5853 246.243 34.1633C245.869 34.7299 245.682 35.4269 245.682 36.2543C245.682 37.1043 245.869 37.8183 246.243 38.3963C246.617 38.9629 247.184 39.2463 247.943 39.2463C248.521 39.2463 248.98 39.0706 249.32 38.7193C249.672 38.3679 249.887 37.9146 249.966 37.3593H251.972C251.836 38.3793 251.423 39.2293 250.731 39.9093C250.051 40.5893 249.116 40.9293 247.926 40.9293ZM257.654 40.9293C256.725 40.9293 255.937 40.7083 255.291 40.2663C254.656 39.8243 254.18 39.2519 253.863 38.5493C253.557 37.8353 253.404 37.0759 253.404 36.2713C253.404 35.4553 253.557 34.6959 253.863 33.9933C254.18 33.2793 254.656 32.7013 255.291 32.2593C255.937 31.8173 256.73 31.5963 257.671 31.5963C258.918 31.5963 259.904 31.9986 260.629 32.8033C261.366 33.6079 261.734 34.7696 261.734 36.2883V36.8493H255.41V36.9853C255.41 37.3819 255.501 37.7559 255.682 38.1073C255.875 38.4586 256.135 38.7419 256.464 38.9573C256.804 39.1613 257.189 39.2633 257.62 39.2633C258.107 39.2633 258.521 39.1499 258.861 38.9233C259.201 38.6853 259.456 38.3679 259.626 37.9713H261.649C261.411 38.8326 260.952 39.5409 260.272 40.0963C259.592 40.6516 258.719 40.9293 257.654 40.9293ZM259.745 35.4893C259.722 34.6733 259.518 34.0783 259.133 33.7043C258.759 33.3189 258.266 33.1263 257.654 33.1263C256.997 33.1263 256.47 33.3416 256.073 33.7723C255.688 34.1916 255.484 34.7639 255.461 35.4893H259.745ZM268.604 40.9293C267.833 40.9293 267.216 40.7479 266.751 40.3853C266.298 40.0113 265.963 39.5976 265.748 39.1443H265.612V40.7933H263.555V28.0263H265.612V33.3133H265.748C265.941 32.8826 266.264 32.4916 266.717 32.1403C267.17 31.7776 267.788 31.5963 268.57 31.5963C269.737 31.5963 270.638 32.0269 271.273 32.8883C271.908 33.7383 272.225 34.8659 272.225 36.2713C272.225 37.6539 271.908 38.7759 271.273 39.6373C270.638 40.4986 269.749 40.9293 268.604 40.9293ZM267.873 39.2633C268.632 39.2633 269.199 38.9743 269.573 38.3963C269.947 37.8069 270.134 37.0986 270.134 36.2713C270.134 35.4439 269.947 34.7469 269.573 34.1803C269.199 33.6023 268.632 33.3133 267.873 33.3133C267.136 33.3133 266.575 33.6023 266.19 34.1803C265.816 34.7469 265.629 35.4439 265.629 36.2713C265.629 37.0986 265.816 37.8069 266.19 38.3963C266.575 38.9743 267.136 39.2633 267.873 39.2633ZM277.958 40.9293C277.029 40.9293 276.241 40.7139 275.595 40.2833C274.96 39.8526 274.484 39.2859 274.167 38.5833C273.85 37.8806 273.691 37.1099 273.691 36.2713C273.691 35.4439 273.85 34.6789 274.167 33.9763C274.484 33.2623 274.96 32.6899 275.595 32.2593C276.241 31.8286 277.029 31.6133 277.958 31.6133C278.887 31.6133 279.669 31.8286 280.304 32.2593C280.95 32.6899 281.426 33.2566 281.732 33.9593C282.049 34.6619 282.208 35.4269 282.208 36.2543C282.208 37.0816 282.049 37.8523 281.732 38.5663C281.426 39.2803 280.95 39.8526 280.304 40.2833C279.669 40.7139 278.887 40.9293 277.958 40.9293ZM277.958 39.2293C278.672 39.2293 279.222 38.9459 279.607 38.3793C279.992 37.8126 280.185 37.1043 280.185 36.2543C280.185 35.4043 279.992 34.7016 279.607 34.1463C279.222 33.5796 278.672 33.2963 277.958 33.2963C277.233 33.2963 276.677 33.5796 276.292 34.1463C275.918 34.7016 275.731 35.4043 275.731 36.2543C275.731 37.1043 275.924 37.8126 276.309 38.3793C276.694 38.9459 277.244 39.2293 277.958 39.2293ZM287.985 40.9293C287.056 40.9293 286.268 40.7139 285.622 40.2833C284.988 39.8526 284.512 39.2859 284.194 38.5833C283.877 37.8806 283.718 37.1099 283.718 36.2713C283.718 35.4439 283.877 34.6789 284.194 33.9763C284.512 33.2623 284.988 32.6899 285.622 32.2593C286.268 31.8286 287.056 31.6133 287.985 31.6133C288.915 31.6133 289.697 31.8286 290.331 32.2593C290.977 32.6899 291.453 33.2566 291.759 33.9593C292.077 34.6619 292.235 35.4269 292.235 36.2543C292.235 37.0816 292.077 37.8523 291.759 38.5663C291.453 39.2803 290.977 39.8526 290.331 40.2833C289.697 40.7139 288.915 40.9293 287.985 40.9293ZM287.985 39.2293C288.699 39.2293 289.249 38.9459 289.634 38.3793C290.02 37.8126 290.212 37.1043 290.212 36.2543C290.212 35.4043 290.02 34.7016 289.634 34.1463C289.249 33.5796 288.699 33.2963 287.985 33.2963C287.26 33.2963 286.705 33.5796 286.319 34.1463C285.945 34.7016 285.758 35.4043 285.758 36.2543C285.758 37.1043 285.951 37.8126 286.336 38.3793C286.722 38.9459 287.271 39.2293 287.985 39.2293ZM294.171 28.1453H296.228V35.2003H296.313L299.254 31.8173H301.566L298.081 35.8973L301.668 40.7933H299.373L296.33 36.4583H296.228V40.7933H294.171V28.1453Z" fill="white"/>
<defs>
<linearGradient id="paint0_linear" x1="182.886" y1="0" x2="182.886" y2="68.0506" gradientUnits="userSpaceOnUse">
<stop stop-color="#5D8BDD"/>
<stop offset="1" stop-color="#0C3072"/>
</linearGradient>
<linearGradient id="paint1_linear" x1="64.7426" y1="0" x2="64.7426" y2="68.0506" gradientUnits="userSpaceOnUse">
<stop stop-color="#95B0EC"/>
<stop offset="1" stop-color="#224187"/>
</linearGradient>
</defs>
</svg>
