<svg width="366" height="69" viewBox="0 0 366 69" fill="none" xmlns="http://www.w3.org/2000/svg">
<g clip-path="url(#clip0)">
<rect width="365.772" height="68.0506" rx="3" fill="url(#paint0_linear)"/>
<path d="M90.7922 28.8763C91.9482 28.8763 92.9512 29.1086 93.8012 29.5733C94.6626 30.0379 95.3256 30.7179 95.7902 31.6133C96.2549 32.5086 96.4872 33.5796 96.4872 34.8263C96.4872 36.0956 96.2492 37.1779 95.7732 38.0733C95.3086 38.9686 94.6456 39.6486 93.7842 40.1133C92.9229 40.5666 91.9142 40.7933 90.7582 40.7933H86.6272V35.4213H85.7262V34.0273H86.6272V28.8763H90.7922ZM90.4012 38.9403C91.0132 38.9403 91.5969 38.8609 92.1522 38.7023C92.7076 38.5323 93.2006 38.1469 93.6312 37.5463C94.0732 36.9343 94.2942 36.0276 94.2942 34.8263C94.2942 33.1263 93.8976 32.0156 93.1042 31.4943C92.3222 30.9729 91.4212 30.7123 90.4012 30.7123H88.6332V34.0273H90.5712V35.4213H88.6332V38.9403H90.4012ZM101.433 40.9293C100.3 40.9293 99.4158 40.4986 98.7812 39.6373C98.1465 38.7759 97.8292 37.6539 97.8292 36.2713C97.8292 34.8659 98.1522 33.7383 98.7982 32.8883C99.4442 32.0269 100.34 31.5963 101.484 31.5963C102.266 31.5963 102.878 31.7776 103.32 32.1403C103.774 32.4916 104.097 32.8826 104.289 33.3133H104.425V31.8173H106.499V40.7933H104.425V39.1443H104.289C104.074 39.6089 103.74 40.0226 103.286 40.3853C102.833 40.7479 102.215 40.9293 101.433 40.9293ZM102.164 39.2293C102.901 39.2293 103.456 38.9403 103.83 38.3623C104.216 37.7843 104.408 37.0816 104.408 36.2543C104.408 35.4269 104.216 34.7299 103.83 34.1633C103.456 33.5853 102.901 33.2963 102.164 33.2963C101.405 33.2963 100.838 33.5853 100.464 34.1633C100.102 34.7299 99.9202 35.4269 99.9202 36.2543C99.9202 37.0816 100.107 37.7843 100.481 38.3623C100.855 38.9403 101.416 39.2293 102.164 39.2293ZM102.368 30.5253C101.654 30.5253 101.048 30.3609 100.549 30.0323C100.062 29.6923 99.6482 29.1936 99.3082 28.5363H101.008C101.28 29.0916 101.734 29.3693 102.368 29.3693C103.003 29.3693 103.456 29.0916 103.728 28.5363H105.428C105.088 29.1936 104.669 29.6923 104.17 30.0323C103.672 30.3609 103.071 30.5253 102.368 30.5253ZM108.729 31.8173H110.803V33.2793H110.922C111.137 32.8146 111.477 32.4179 111.942 32.0893C112.418 31.7606 112.996 31.5963 113.676 31.5963C114.832 31.5963 115.665 31.9703 116.175 32.7183C116.685 33.4663 116.94 34.3333 116.94 35.3193V40.7933H114.883V35.6423C114.883 34.9056 114.702 34.3389 114.339 33.9423C113.988 33.5343 113.5 33.3303 112.877 33.3303C112.208 33.3303 111.693 33.5456 111.33 33.9763C110.979 34.4069 110.803 34.9623 110.803 35.6423V40.7933H108.729V31.8173ZM123.288 44.4993C122.676 44.4993 122.149 44.4143 121.707 44.2443V42.5783C121.82 42.6123 122.007 42.6463 122.268 42.6803C122.529 42.7256 122.778 42.7483 123.016 42.7483C123.843 42.7483 124.438 42.5103 124.801 42.0343C125.164 41.5696 125.345 40.9803 125.345 40.2663V38.9403H125.209C124.994 39.3936 124.648 39.8016 124.172 40.1643C123.696 40.5156 123.09 40.6913 122.353 40.6913C121.616 40.6913 120.976 40.5043 120.432 40.1303C119.888 39.7449 119.469 39.2123 119.174 38.5323C118.879 37.8409 118.732 37.0476 118.732 36.1523C118.732 35.2456 118.879 34.4466 119.174 33.7553C119.469 33.0639 119.888 32.5313 120.432 32.1573C120.976 31.7719 121.616 31.5793 122.353 31.5793C123.112 31.5793 123.73 31.7719 124.206 32.1573C124.693 32.5313 125.028 32.9449 125.209 33.3983H125.345V31.8343H127.402V40.2663C127.402 40.8669 127.289 41.4846 127.062 42.1193C126.847 42.7539 126.433 43.3093 125.821 43.7853C125.209 44.2613 124.365 44.4993 123.288 44.4993ZM123.101 38.9913C123.826 38.9913 124.376 38.7079 124.75 38.1413C125.135 37.5633 125.328 36.8889 125.328 36.1183C125.328 35.3589 125.135 34.6959 124.75 34.1293C124.376 33.5626 123.826 33.2793 123.101 33.2793C122.364 33.2793 121.803 33.5626 121.418 34.1293C121.044 34.6846 120.857 35.3476 120.857 36.1183C120.857 36.9003 121.044 37.5746 121.418 38.1413C121.792 38.7079 122.353 38.9913 123.101 38.9913ZM133.465 31.8173H135.539V33.2793H135.658C135.874 32.8146 136.214 32.4179 136.678 32.0893C137.154 31.7606 137.732 31.5963 138.412 31.5963C139.568 31.5963 140.401 31.9703 140.911 32.7183C141.421 33.4663 141.676 34.3333 141.676 35.3193V40.7933H139.619V35.6423C139.619 34.9056 139.438 34.3389 139.075 33.9423C138.724 33.5343 138.237 33.3303 137.613 33.3303C136.945 33.3303 136.429 33.5456 136.066 33.9763C135.715 34.4069 135.539 34.9623 135.539 35.6423V40.7933H133.465V31.8173ZM143.858 28.1453H145.932V33.2793H146.051C146.266 32.8146 146.606 32.4179 147.071 32.0893C147.547 31.7606 148.125 31.5963 148.805 31.5963C149.961 31.5963 150.794 31.9703 151.304 32.7183C151.814 33.4663 152.069 34.3333 152.069 35.3193V40.7933H150.012V35.6423C150.012 34.9056 149.831 34.3389 149.468 33.9423C149.117 33.5343 148.618 33.3303 147.972 33.3303C147.36 33.3303 146.867 33.5456 146.493 33.9763C146.119 34.3956 145.932 34.9509 145.932 35.6423V40.7933H143.858V28.1453ZM157.397 40.9293C156.264 40.9293 155.38 40.4986 154.745 39.6373C154.11 38.7759 153.793 37.6539 153.793 36.2713C153.793 34.8659 154.116 33.7383 154.762 32.8883C155.408 32.0269 156.303 31.5963 157.448 31.5963C158.23 31.5963 158.842 31.7776 159.284 32.1403C159.737 32.4916 160.06 32.8826 160.253 33.3133H160.389V31.8173H162.463V40.7933H160.389V39.1443H160.253C160.038 39.6089 159.703 40.0226 159.25 40.3853C158.797 40.7479 158.179 40.9293 157.397 40.9293ZM158.128 39.2293C158.865 39.2293 159.42 38.9403 159.794 38.3623C160.179 37.7843 160.372 37.0816 160.372 36.2543C160.372 35.4269 160.179 34.7299 159.794 34.1633C159.42 33.5853 158.865 33.2963 158.128 33.2963C157.369 33.2963 156.802 33.5853 156.428 34.1633C156.065 34.7299 155.884 35.4269 155.884 36.2543C155.884 37.0816 156.071 37.7843 156.445 38.3623C156.819 38.9403 157.38 39.2293 158.128 39.2293ZM157.55 28.1113H159.131L161.511 30.7293H159.59L158.366 29.3863H158.298L157.108 30.7293H155.187L157.55 28.1113ZM158.332 44.8223C158.003 44.8223 157.726 44.7089 157.499 44.4823C157.284 44.2556 157.176 43.9836 157.176 43.6663C157.176 43.3489 157.284 43.0769 157.499 42.8503C157.726 42.6349 158.003 42.5273 158.332 42.5273C158.649 42.5273 158.921 42.6349 159.148 42.8503C159.375 43.0769 159.488 43.3489 159.488 43.6663C159.488 43.9836 159.375 44.2556 159.148 44.4823C158.921 44.7089 158.649 44.8223 158.332 44.8223ZM169.742 40.9293C168.971 40.9293 168.353 40.7479 167.889 40.3853C167.435 40.0113 167.101 39.5976 166.886 39.1443H166.75V44.2953H164.693V31.8173H166.75V33.3133H166.886C167.078 32.8826 167.401 32.4916 167.855 32.1403C168.308 31.7776 168.926 31.5963 169.708 31.5963C170.875 31.5963 171.776 32.0269 172.411 32.8883C173.045 33.7383 173.363 34.8659 173.363 36.2713C173.363 37.6539 173.045 38.7759 172.411 39.6373C171.776 40.4986 170.886 40.9293 169.742 40.9293ZM169.011 39.2633C169.77 39.2633 170.337 38.9743 170.711 38.3963C171.085 37.8069 171.272 37.0986 171.272 36.2713C171.272 35.4439 171.085 34.7469 170.711 34.1803C170.337 33.6023 169.77 33.3133 169.011 33.3133C168.274 33.3133 167.713 33.6023 167.328 34.1803C166.954 34.7469 166.767 35.4439 166.767 36.2713C166.767 37.0986 166.954 37.8069 167.328 38.3963C167.713 38.9743 168.274 39.2633 169.011 39.2633ZM184.218 40.9293C183.448 40.9293 182.83 40.7479 182.365 40.3853C181.912 40.0113 181.578 39.5976 181.362 39.1443H181.226V40.7933H179.169V28.0263H181.226V33.3133H181.362C181.555 32.8826 181.878 32.4916 182.331 32.1403C182.785 31.7776 183.402 31.5963 184.184 31.5963C185.352 31.5963 186.253 32.0269 186.887 32.8883C187.522 33.7383 187.839 34.8659 187.839 36.2713C187.839 37.6539 187.522 38.7759 186.887 39.6373C186.253 40.4986 185.363 40.9293 184.218 40.9293ZM183.487 39.2633C184.247 39.2633 184.813 38.9743 185.187 38.3963C185.561 37.8069 185.748 37.0986 185.748 36.2713C185.748 35.4439 185.561 34.7469 185.187 34.1803C184.813 33.6023 184.247 33.3133 183.487 33.3133C182.751 33.3133 182.19 33.6023 181.804 34.1803C181.43 34.7469 181.243 35.4439 181.243 36.2713C181.243 37.0986 181.43 37.8069 181.804 38.3963C182.19 38.9743 182.751 39.2633 183.487 39.2633ZM192.841 40.9293C191.708 40.9293 190.824 40.4986 190.189 39.6373C189.555 38.7759 189.237 37.6539 189.237 36.2713C189.237 34.8659 189.56 33.7383 190.206 32.8883C190.852 32.0269 191.748 31.5963 192.892 31.5963C193.674 31.5963 194.286 31.7776 194.728 32.1403C195.182 32.4916 195.505 32.8826 195.697 33.3133H195.833V31.8173H197.907V40.7933H195.833V39.1443H195.697C195.482 39.6089 195.148 40.0226 194.694 40.3853C194.241 40.7479 193.623 40.9293 192.841 40.9293ZM193.572 39.2293C194.309 39.2293 194.864 38.9403 195.238 38.3623C195.624 37.7843 195.816 37.0816 195.816 36.2543C195.816 35.4269 195.624 34.7299 195.238 34.1633C194.864 33.5853 194.309 33.2963 193.572 33.2963C192.813 33.2963 192.246 33.5853 191.872 34.1633C191.51 34.7299 191.328 35.4269 191.328 36.2543C191.328 37.0816 191.515 37.7843 191.889 38.3623C192.263 38.9403 192.824 39.2293 193.572 39.2293ZM193.827 30.5253C193.113 30.5253 192.507 30.3609 192.008 30.0323C191.521 29.6923 191.107 29.1936 190.767 28.5363H192.467C192.739 29.0916 193.193 29.3693 193.827 29.3693C194.462 29.3693 194.915 29.0916 195.187 28.5363H196.887C196.547 29.1936 196.128 29.6923 195.629 30.0323C195.131 30.3609 194.53 30.5253 193.827 30.5253ZM190.835 24.6433H192.926L194.609 27.8733L192.977 27.8903L190.835 24.6433ZM200.137 31.8173H202.211V33.2793H202.33C202.545 32.8146 202.885 32.4179 203.35 32.0893C203.826 31.7606 204.404 31.5963 205.084 31.5963C206.24 31.5963 207.073 31.9703 207.583 32.7183C208.093 33.4663 208.348 34.3333 208.348 35.3193V40.7933H206.291V35.6423C206.291 34.9056 206.11 34.3389 205.747 33.9423C205.396 33.5343 204.908 33.3303 204.285 33.3303C203.616 33.3303 203.101 33.5456 202.738 33.9763C202.387 34.4069 202.211 34.9623 202.211 35.6423V40.7933H200.137V31.8173ZM214.696 44.4993C214.084 44.4993 213.557 44.4143 213.115 44.2443V42.5783C213.229 42.6123 213.416 42.6463 213.676 42.6803C213.937 42.7256 214.186 42.7483 214.424 42.7483C215.252 42.7483 215.847 42.5103 216.209 42.0343C216.572 41.5696 216.753 40.9803 216.753 40.2663V38.9403H216.617C216.402 39.3936 216.056 39.8016 215.58 40.1643C215.104 40.5156 214.498 40.6913 213.761 40.6913C213.025 40.6913 212.384 40.5043 211.84 40.1303C211.296 39.7449 210.877 39.2123 210.582 38.5323C210.288 37.8409 210.14 37.0476 210.14 36.1523C210.14 35.2456 210.288 34.4466 210.582 33.7553C210.877 33.0639 211.296 32.5313 211.84 32.1573C212.384 31.7719 213.025 31.5793 213.761 31.5793C214.521 31.5793 215.138 31.7719 215.614 32.1573C216.102 32.5313 216.436 32.9449 216.617 33.3983H216.753V31.8343H218.81V40.2663C218.81 40.8669 218.697 41.4846 218.47 42.1193C218.255 42.7539 217.841 43.3093 217.229 43.7853C216.617 44.2613 215.773 44.4993 214.696 44.4993ZM214.509 38.9913C215.235 38.9913 215.784 38.7079 216.158 38.1413C216.544 37.5633 216.736 36.8889 216.736 36.1183C216.736 35.3589 216.544 34.6959 216.158 34.1293C215.784 33.5626 215.235 33.2793 214.509 33.2793C213.773 33.2793 213.212 33.5626 212.826 34.1293C212.452 34.6846 212.265 35.3476 212.265 36.1183C212.265 36.9003 212.452 37.5746 212.826 38.1413C213.2 38.7079 213.761 38.9913 214.509 38.9913ZM228.12 40.9293C227.372 40.9293 226.726 40.7876 226.182 40.5043C225.638 40.2209 225.225 39.8526 224.941 39.3993C224.658 38.9346 224.516 38.4473 224.516 37.9373V37.8353H226.539V37.9373C226.539 38.2886 226.681 38.6059 226.964 38.8893C227.248 39.1726 227.65 39.3143 228.171 39.3143C228.602 39.3143 228.953 39.2123 229.225 39.0083C229.497 38.8043 229.633 38.5209 229.633 38.1583C229.633 37.8409 229.514 37.5916 229.276 37.4103C229.05 37.2289 228.766 37.1156 228.426 37.0703L227.355 36.8663C226.664 36.7529 226.052 36.4979 225.519 36.1013C224.998 35.6933 224.737 35.0869 224.737 34.2823C224.737 33.4436 225.043 32.7863 225.655 32.3103C226.267 31.8343 227.055 31.5963 228.018 31.5963C228.721 31.5963 229.327 31.7266 229.837 31.9873C230.359 32.2479 230.75 32.5879 231.01 33.0073C231.282 33.4266 231.418 33.8799 231.418 34.3673V34.4353H229.395V34.3843C229.395 34.0783 229.276 33.7893 229.038 33.5173C228.812 33.2453 228.449 33.1093 227.95 33.1093C227.531 33.1093 227.197 33.2169 226.947 33.4323C226.698 33.6363 226.573 33.9083 226.573 34.2483C226.573 34.5429 226.687 34.7809 226.913 34.9623C227.151 35.1436 227.446 35.2683 227.797 35.3363L228.97 35.5403C229.707 35.6876 230.325 35.9653 230.823 36.3733C231.322 36.7813 231.571 37.3649 231.571 38.1243C231.571 38.6796 231.418 39.1726 231.112 39.6033C230.818 40.0226 230.404 40.3513 229.871 40.5893C229.35 40.8159 228.766 40.9293 228.12 40.9293ZM237.234 40.9293C236.305 40.9293 235.517 40.7139 234.871 40.2833C234.237 39.8526 233.761 39.2859 233.443 38.5833C233.126 37.8806 232.967 37.1099 232.967 36.2713C232.967 35.4439 233.126 34.6789 233.443 33.9763C233.761 33.2623 234.237 32.6899 234.871 32.2593C235.517 31.8286 236.305 31.6133 237.234 31.6133C238.164 31.6133 238.946 31.8286 239.58 32.2593C240.226 32.6899 240.702 33.2566 241.008 33.9593C241.326 34.6619 241.484 35.4269 241.484 36.2543C241.484 37.0816 241.326 37.8523 241.008 38.5663C240.702 39.2803 240.226 39.8526 239.58 40.2833C238.946 40.7139 238.164 40.9293 237.234 40.9293ZM237.234 39.2293C237.948 39.2293 238.498 38.9459 238.883 38.3793C239.269 37.8126 239.461 37.1043 239.461 36.2543C239.461 35.4043 239.269 34.7016 238.883 34.1463C238.498 33.5796 237.948 33.2963 237.234 33.2963C236.509 33.2963 235.954 33.5796 235.568 34.1463C235.194 34.7016 235.007 35.4043 235.007 36.2543C235.007 37.1043 235.2 37.8126 235.585 38.3793C235.971 38.9459 236.52 39.2293 237.234 39.2293ZM236.435 28.1113H238.016L240.396 30.7293H238.475L237.251 29.3863H237.183L235.993 30.7293H234.072L236.435 28.1113ZM239.393 28.5533L241.093 25.3233H243.167L241.025 28.5703L239.393 28.5533ZM256.688 30.6783H255.566V40.7933H253.492V39.1443H253.356C253.14 39.5976 252.8 40.0113 252.336 40.3853C251.882 40.7479 251.27 40.9293 250.5 40.9293C249.74 40.9293 249.089 40.7309 248.545 40.3343C248.001 39.9376 247.587 39.3879 247.304 38.6853C247.02 37.9826 246.879 37.1779 246.879 36.2713C246.879 34.8659 247.196 33.7383 247.831 32.8883C248.477 32.0269 249.378 31.5963 250.534 31.5963C251.316 31.5963 251.933 31.7776 252.387 32.1403C252.84 32.4916 253.163 32.8826 253.356 33.3133H253.492V30.6783H251.35V29.3183H253.492V28.0263H255.566V29.3183H256.688V30.6783ZM251.231 39.2633C251.967 39.2633 252.523 38.9743 252.897 38.3963C253.282 37.8069 253.475 37.0986 253.475 36.2713C253.475 35.4439 253.282 34.7469 252.897 34.1803C252.523 33.6023 251.967 33.3133 251.231 33.3133C250.483 33.3133 249.922 33.6023 249.548 34.1803C249.174 34.7469 248.987 35.4439 248.987 36.2713C248.987 37.1099 249.174 37.8183 249.548 38.3963C249.922 38.9743 250.483 39.2633 251.231 39.2633ZM258.148 31.8173H260.205V40.7933H258.148V31.8173ZM259.151 30.2363C258.811 30.2363 258.528 30.1229 258.301 29.8963C258.075 29.6583 257.961 29.3749 257.961 29.0463C257.961 28.7063 258.075 28.4229 258.301 28.1963C258.528 27.9696 258.811 27.8563 259.151 27.8563C259.491 27.8563 259.775 27.9753 260.001 28.2133C260.228 28.4399 260.341 28.7176 260.341 29.0463C260.341 29.3749 260.228 29.6583 260.001 29.8963C259.775 30.1229 259.491 30.2363 259.151 30.2363ZM266.503 40.9293C265.573 40.9293 264.786 40.7083 264.14 40.2663C263.505 39.8243 263.029 39.2519 262.712 38.5493C262.406 37.8353 262.253 37.0759 262.253 36.2713C262.253 35.4553 262.406 34.6959 262.712 33.9933C263.029 33.2793 263.505 32.7013 264.14 32.2593C264.786 31.8173 265.579 31.5963 266.52 31.5963C267.766 31.5963 268.752 31.9986 269.478 32.8033C270.214 33.6079 270.583 34.7696 270.583 36.2883V36.8493H264.259V36.9853C264.259 37.3819 264.349 37.7559 264.531 38.1073C264.723 38.4586 264.984 38.7419 265.313 38.9573C265.653 39.1613 266.038 39.2633 266.469 39.2633C266.956 39.2633 267.37 39.1499 267.71 38.9233C268.05 38.6853 268.305 38.3679 268.475 37.9713H270.498C270.26 38.8326 269.801 39.5409 269.121 40.0963C268.441 40.6516 267.568 40.9293 266.503 40.9293ZM268.594 35.4893C268.571 34.6733 268.367 34.0783 267.982 33.7043C267.608 33.3189 267.115 33.1263 266.503 33.1263C265.845 33.1263 265.318 33.3416 264.922 33.7723C264.536 34.1916 264.332 34.7639 264.31 35.4893H268.594ZM266.554 44.8223C266.225 44.8223 265.947 44.7089 265.721 44.4823C265.505 44.2556 265.398 43.9836 265.398 43.6663C265.398 43.3489 265.505 43.0769 265.721 42.8503C265.947 42.6349 266.225 42.5273 266.554 42.5273C266.871 42.5273 267.143 42.6349 267.37 42.8503C267.596 43.0769 267.71 43.3489 267.71 43.6663C267.71 43.9836 267.596 44.2556 267.37 44.4823C267.143 44.7089 266.871 44.8223 266.554 44.8223ZM265.738 28.1113H267.319L269.699 30.7293H267.778L266.554 29.3863H266.486L265.296 30.7293H263.375L265.738 28.1113ZM272.404 31.8173H274.478V33.2793H274.597C274.812 32.8146 275.152 32.4179 275.617 32.0893C276.093 31.7606 276.671 31.5963 277.351 31.5963C278.507 31.5963 279.34 31.9703 279.85 32.7183C280.36 33.4663 280.615 34.3333 280.615 35.3193V40.7933H278.558V35.6423C278.558 34.9056 278.376 34.3389 278.014 33.9423C277.662 33.5343 277.175 33.3303 276.552 33.3303C275.883 33.3303 275.367 33.5456 275.005 33.9763C274.653 34.4069 274.478 34.9623 274.478 35.6423V40.7933H272.404V31.8173ZM289.658 33.4323V37.8353C289.658 38.2433 289.675 38.5436 289.709 38.7363C289.754 38.9289 289.867 39.0819 290.049 39.1953C290.23 39.3086 290.519 39.3653 290.916 39.3653C291.12 39.3653 291.38 39.3369 291.698 39.2803V40.7253C291.63 40.7479 291.437 40.7763 291.12 40.8103C290.802 40.8443 290.491 40.8613 290.185 40.8613C289.403 40.8613 288.825 40.7479 288.451 40.5213C288.077 40.2946 287.839 40.0056 287.737 39.6543C287.646 39.3029 287.601 38.8439 287.601 38.2773V33.4323H286.037V31.8173H287.601V28.8933H289.658V31.8173H291.698V33.4323H289.658ZM293.687 28.1453H295.761V33.2793H295.88C296.095 32.8146 296.435 32.4179 296.9 32.0893C297.376 31.7606 297.954 31.5963 298.634 31.5963C299.79 31.5963 300.623 31.9703 301.133 32.7183C301.643 33.4663 301.898 34.3333 301.898 35.3193V40.7933H299.841V35.6423C299.841 34.9056 299.66 34.3389 299.297 33.9423C298.946 33.5343 298.447 33.3303 297.801 33.3303C297.189 33.3303 296.696 33.5456 296.322 33.9763C295.948 34.3956 295.761 34.9509 295.761 35.6423V40.7933H293.687V28.1453ZM307.957 40.9293C307.028 40.9293 306.24 40.7139 305.594 40.2833C304.959 39.8526 304.483 39.2859 304.166 38.5833C303.849 37.8806 303.69 37.1099 303.69 36.2713C303.69 35.4439 303.849 34.6789 304.166 33.9763C304.483 33.2623 304.959 32.6899 305.594 32.2593C306.24 31.8286 307.028 31.6133 307.957 31.6133C308.886 31.6133 309.668 31.8286 310.303 32.2593C310.949 32.6899 311.425 33.2566 311.731 33.9593C312.048 34.6619 312.207 35.4269 312.207 36.2543C312.207 37.0816 312.048 37.8523 311.731 38.5663C311.425 39.2803 310.949 39.8526 310.303 40.2833C309.668 40.7139 308.886 40.9293 307.957 40.9293ZM307.957 39.2293C308.671 39.2293 309.221 38.9459 309.606 38.3793C309.991 37.8126 310.184 37.1043 310.184 36.2543C310.184 35.4043 309.991 34.7016 309.606 34.1463C309.221 33.5796 308.671 33.2963 307.957 33.2963C307.232 33.2963 306.676 33.5796 306.291 34.1463C305.917 34.7016 305.73 35.4043 305.73 36.2543C305.73 37.1043 305.923 37.8126 306.308 38.3793C306.693 38.9459 307.243 39.2293 307.957 39.2293ZM317.253 40.9293C316.12 40.9293 315.236 40.4986 314.601 39.6373C313.967 38.7759 313.649 37.6539 313.649 36.2713C313.649 34.8659 313.972 33.7383 314.618 32.8883C315.264 32.0269 316.16 31.5963 317.304 31.5963C318.086 31.5963 318.698 31.7776 319.14 32.1403C319.594 32.4916 319.917 32.8826 320.109 33.3133H320.245V31.8173H322.319V40.7933H320.245V39.1443H320.109C319.894 39.6089 319.56 40.0226 319.106 40.3853C318.653 40.7479 318.035 40.9293 317.253 40.9293ZM317.984 39.2293C318.721 39.2293 319.276 38.9403 319.65 38.3623C320.036 37.7843 320.228 37.0816 320.228 36.2543C320.228 35.4269 320.036 34.7299 319.65 34.1633C319.276 33.5853 318.721 33.2963 317.984 33.2963C317.225 33.2963 316.658 33.5853 316.284 34.1633C315.922 34.7299 315.74 35.4269 315.74 36.2543C315.74 37.0816 315.927 37.7843 316.301 38.3623C316.675 38.9403 317.236 39.2293 317.984 39.2293ZM318.188 44.8223C317.86 44.8223 317.582 44.7089 317.355 44.4823C317.14 44.2556 317.032 43.9836 317.032 43.6663C317.032 43.3489 317.14 43.0769 317.355 42.8503C317.582 42.6349 317.86 42.5273 318.188 42.5273C318.506 42.5273 318.778 42.6349 319.004 42.8503C319.231 43.0769 319.344 43.3489 319.344 43.6663C319.344 43.9836 319.231 44.2556 319.004 44.4823C318.778 44.7089 318.506 44.8223 318.188 44.8223ZM324.77 31.8173H326.827V40.7933H324.77V31.8173ZM325.773 30.2363C325.433 30.2363 325.15 30.1229 324.923 29.8963C324.697 29.6583 324.583 29.3749 324.583 29.0463C324.583 28.7063 324.697 28.4229 324.923 28.1963C325.15 27.9696 325.433 27.8563 325.773 27.8563C326.113 27.8563 326.397 27.9753 326.623 28.2133C326.85 28.4399 326.963 28.7176 326.963 29.0463C326.963 29.3749 326.85 29.6583 326.623 29.8963C326.397 30.1229 326.113 30.2363 325.773 30.2363Z" fill="url(#paint1_linear)"/>
<g clip-path="url(#clip1)">
<path d="M39.1387 19.8481H26.0761C24.9879 19.8481 24.0972 20.738 24.0972 21.8271V47.1678C24.0972 48.257 24.9879 49.1477 26.0761 49.1477H39.1387C40.227 49.1477 41.1177 48.2586 41.1177 47.1687V21.8271C41.1177 20.738 40.227 19.8481 39.1387 19.8481ZM30.518 21.2746H34.6969C34.8292 21.2746 34.9363 21.3817 34.9363 21.5148C34.9363 21.6471 34.8292 21.7542 34.6969 21.7542H30.518C30.3857 21.7542 30.2785 21.6471 30.2785 21.5148C30.2785 21.3817 30.3857 21.2746 30.518 21.2746ZM32.6074 48.1582C32.0608 48.1582 31.618 47.7153 31.618 47.1678C31.618 46.6204 32.0608 46.1784 32.6074 46.1784C33.1541 46.1784 33.5969 46.6204 33.5969 47.1678C33.5969 47.7153 33.1541 48.1582 32.6074 48.1582ZM39.7406 45.4852H25.4742V22.9865H39.7406V45.4852Z" fill="url(#paint2_linear)"/>
</g>
<path d="M64.27 0H65.2152V68.0506H64.27V0Z" fill="url(#paint3_linear)"/>
</g>
<defs>
<linearGradient id="paint0_linear" x1="182.886" y1="0" x2="182.886" y2="68.0506" gradientUnits="userSpaceOnUse">
<stop stop-color="white"/>
<stop offset="1" stop-color="#E3D7D7"/>
</linearGradient>
<linearGradient id="paint1_linear" x1="213.603" y1="20.7933" x2="213.603" y2="47.2574" gradientUnits="userSpaceOnUse">
<stop stop-color="#1B75BB"/>
<stop offset="1" stop-color="#652C90"/>
</linearGradient>
<linearGradient id="paint2_linear" x1="32.6074" y1="19.8481" x2="32.6074" y2="49.1477" gradientUnits="userSpaceOnUse">
<stop stop-color="#1B75BB"/>
<stop offset="1" stop-color="#652C90"/>
</linearGradient>
<linearGradient id="paint3_linear" x1="64.7426" y1="0" x2="64.7426" y2="68.0506" gradientUnits="userSpaceOnUse">
<stop stop-color="#95B0EC"/>
<stop offset="1" stop-color="#224187"/>
</linearGradient>
<clipPath id="clip0">
<path d="M0 0H365.772V68.0506H0V0Z" fill="white"/>
</clipPath>
<clipPath id="clip1">
<rect x="17.9578" y="19.8481" width="29.2996" height="29.2996" fill="white"/>
</clipPath>
</defs>
</svg>
