<svg width="366" height="69" viewBox="0 0 366 69" fill="none" xmlns="http://www.w3.org/2000/svg">
<rect width="365.772" height="68.0506" rx="3" fill="url(#paint0_linear)"/>
<path d="M0 3.00001C0 1.34315 1.34315 0 3 0H65.2152V68.0506H3C1.34315 68.0506 0 66.7075 0 65.0506V3.00001Z" fill="white"/>
<path d="M90.7922 28.8763C91.9482 28.8763 92.9512 29.1086 93.8012 29.5733C94.6626 30.0379 95.3256 30.7179 95.7902 31.6133C96.2549 32.5086 96.4872 33.5796 96.4872 34.8263C96.4872 36.0956 96.2492 37.1779 95.7732 38.0733C95.3086 38.9686 94.6456 39.6486 93.7842 40.1133C92.9229 40.5666 91.9142 40.7933 90.7582 40.7933H86.6272V35.4213H85.7262V34.0273H86.6272V28.8763H90.7922ZM90.4012 38.9403C91.0132 38.9403 91.5969 38.8609 92.1522 38.7023C92.7076 38.5323 93.2006 38.1469 93.6312 37.5463C94.0732 36.9343 94.2942 36.0276 94.2942 34.8263C94.2942 33.1263 93.8976 32.0156 93.1042 31.4943C92.3222 30.9729 91.4212 30.7123 90.4012 30.7123H88.6332V34.0273H90.5712V35.4213H88.6332V38.9403H90.4012ZM101.433 40.9293C100.3 40.9293 99.4158 40.4986 98.7812 39.6373C98.1465 38.7759 97.8292 37.6539 97.8292 36.2713C97.8292 34.8659 98.1522 33.7383 98.7982 32.8883C99.4442 32.0269 100.34 31.5963 101.484 31.5963C102.266 31.5963 102.878 31.7776 103.32 32.1403C103.774 32.4916 104.097 32.8826 104.289 33.3133H104.425V31.8173H106.499V40.7933H104.425V39.1443H104.289C104.074 39.6089 103.74 40.0226 103.286 40.3853C102.833 40.7479 102.215 40.9293 101.433 40.9293ZM102.164 39.2293C102.901 39.2293 103.456 38.9403 103.83 38.3623C104.216 37.7843 104.408 37.0816 104.408 36.2543C104.408 35.4269 104.216 34.7299 103.83 34.1633C103.456 33.5853 102.901 33.2963 102.164 33.2963C101.405 33.2963 100.838 33.5853 100.464 34.1633C100.102 34.7299 99.9202 35.4269 99.9202 36.2543C99.9202 37.0816 100.107 37.7843 100.481 38.3623C100.855 38.9403 101.416 39.2293 102.164 39.2293ZM102.368 30.5253C101.654 30.5253 101.048 30.3609 100.549 30.0323C100.062 29.6923 99.6482 29.1936 99.3082 28.5363H101.008C101.28 29.0916 101.734 29.3693 102.368 29.3693C103.003 29.3693 103.456 29.0916 103.728 28.5363H105.428C105.088 29.1936 104.669 29.6923 104.17 30.0323C103.672 30.3609 103.071 30.5253 102.368 30.5253ZM108.729 31.8173H110.803V33.2793H110.922C111.137 32.8146 111.477 32.4179 111.942 32.0893C112.418 31.7606 112.996 31.5963 113.676 31.5963C114.832 31.5963 115.665 31.9703 116.175 32.7183C116.685 33.4663 116.94 34.3333 116.94 35.3193V40.7933H114.883V35.6423C114.883 34.9056 114.702 34.3389 114.339 33.9423C113.988 33.5343 113.5 33.3303 112.877 33.3303C112.208 33.3303 111.693 33.5456 111.33 33.9763C110.979 34.4069 110.803 34.9623 110.803 35.6423V40.7933H108.729V31.8173ZM123.288 44.4993C122.676 44.4993 122.149 44.4143 121.707 44.2443V42.5783C121.82 42.6123 122.007 42.6463 122.268 42.6803C122.529 42.7256 122.778 42.7483 123.016 42.7483C123.843 42.7483 124.438 42.5103 124.801 42.0343C125.164 41.5696 125.345 40.9803 125.345 40.2663V38.9403H125.209C124.994 39.3936 124.648 39.8016 124.172 40.1643C123.696 40.5156 123.09 40.6913 122.353 40.6913C121.616 40.6913 120.976 40.5043 120.432 40.1303C119.888 39.7449 119.469 39.2123 119.174 38.5323C118.879 37.8409 118.732 37.0476 118.732 36.1523C118.732 35.2456 118.879 34.4466 119.174 33.7553C119.469 33.0639 119.888 32.5313 120.432 32.1573C120.976 31.7719 121.616 31.5793 122.353 31.5793C123.112 31.5793 123.73 31.7719 124.206 32.1573C124.693 32.5313 125.028 32.9449 125.209 33.3983H125.345V31.8343H127.402V40.2663C127.402 40.8669 127.289 41.4846 127.062 42.1193C126.847 42.7539 126.433 43.3093 125.821 43.7853C125.209 44.2613 124.365 44.4993 123.288 44.4993ZM123.101 38.9913C123.826 38.9913 124.376 38.7079 124.75 38.1413C125.135 37.5633 125.328 36.8889 125.328 36.1183C125.328 35.3589 125.135 34.6959 124.75 34.1293C124.376 33.5626 123.826 33.2793 123.101 33.2793C122.364 33.2793 121.803 33.5626 121.418 34.1293C121.044 34.6846 120.857 35.3476 120.857 36.1183C120.857 36.9003 121.044 37.5746 121.418 38.1413C121.792 38.7079 122.353 38.9913 123.101 38.9913ZM133.465 31.8173H135.539V33.2793H135.658C135.874 32.8146 136.214 32.4179 136.678 32.0893C137.154 31.7606 137.732 31.5963 138.412 31.5963C139.568 31.5963 140.401 31.9703 140.911 32.7183C141.421 33.4663 141.676 34.3333 141.676 35.3193V40.7933H139.619V35.6423C139.619 34.9056 139.438 34.3389 139.075 33.9423C138.724 33.5343 138.237 33.3303 137.613 33.3303C136.945 33.3303 136.429 33.5456 136.066 33.9763C135.715 34.4069 135.539 34.9623 135.539 35.6423V40.7933H133.465V31.8173ZM143.858 28.1453H145.932V33.2793H146.051C146.266 32.8146 146.606 32.4179 147.071 32.0893C147.547 31.7606 148.125 31.5963 148.805 31.5963C149.961 31.5963 150.794 31.9703 151.304 32.7183C151.814 33.4663 152.069 34.3333 152.069 35.3193V40.7933H150.012V35.6423C150.012 34.9056 149.831 34.3389 149.468 33.9423C149.117 33.5343 148.618 33.3303 147.972 33.3303C147.36 33.3303 146.867 33.5456 146.493 33.9763C146.119 34.3956 145.932 34.9509 145.932 35.6423V40.7933H143.858V28.1453ZM157.397 40.9293C156.264 40.9293 155.38 40.4986 154.745 39.6373C154.11 38.7759 153.793 37.6539 153.793 36.2713C153.793 34.8659 154.116 33.7383 154.762 32.8883C155.408 32.0269 156.303 31.5963 157.448 31.5963C158.23 31.5963 158.842 31.7776 159.284 32.1403C159.737 32.4916 160.06 32.8826 160.253 33.3133H160.389V31.8173H162.463V40.7933H160.389V39.1443H160.253C160.038 39.6089 159.703 40.0226 159.25 40.3853C158.797 40.7479 158.179 40.9293 157.397 40.9293ZM158.128 39.2293C158.865 39.2293 159.42 38.9403 159.794 38.3623C160.179 37.7843 160.372 37.0816 160.372 36.2543C160.372 35.4269 160.179 34.7299 159.794 34.1633C159.42 33.5853 158.865 33.2963 158.128 33.2963C157.369 33.2963 156.802 33.5853 156.428 34.1633C156.065 34.7299 155.884 35.4269 155.884 36.2543C155.884 37.0816 156.071 37.7843 156.445 38.3623C156.819 38.9403 157.38 39.2293 158.128 39.2293ZM157.55 28.1113H159.131L161.511 30.7293H159.59L158.366 29.3863H158.298L157.108 30.7293H155.187L157.55 28.1113ZM158.332 44.8223C158.003 44.8223 157.726 44.7089 157.499 44.4823C157.284 44.2556 157.176 43.9836 157.176 43.6663C157.176 43.3489 157.284 43.0769 157.499 42.8503C157.726 42.6349 158.003 42.5273 158.332 42.5273C158.649 42.5273 158.921 42.6349 159.148 42.8503C159.375 43.0769 159.488 43.3489 159.488 43.6663C159.488 43.9836 159.375 44.2556 159.148 44.4823C158.921 44.7089 158.649 44.8223 158.332 44.8223ZM169.742 40.9293C168.971 40.9293 168.353 40.7479 167.889 40.3853C167.435 40.0113 167.101 39.5976 166.886 39.1443H166.75V44.2953H164.693V31.8173H166.75V33.3133H166.886C167.078 32.8826 167.401 32.4916 167.855 32.1403C168.308 31.7776 168.926 31.5963 169.708 31.5963C170.875 31.5963 171.776 32.0269 172.411 32.8883C173.045 33.7383 173.363 34.8659 173.363 36.2713C173.363 37.6539 173.045 38.7759 172.411 39.6373C171.776 40.4986 170.886 40.9293 169.742 40.9293ZM169.011 39.2633C169.77 39.2633 170.337 38.9743 170.711 38.3963C171.085 37.8069 171.272 37.0986 171.272 36.2713C171.272 35.4439 171.085 34.7469 170.711 34.1803C170.337 33.6023 169.77 33.3133 169.011 33.3133C168.274 33.3133 167.713 33.6023 167.328 34.1803C166.954 34.7469 166.767 35.4439 166.767 36.2713C166.767 37.0986 166.954 37.8069 167.328 38.3963C167.713 38.9743 168.274 39.2633 169.011 39.2633ZM184.218 40.9293C183.448 40.9293 182.83 40.7479 182.365 40.3853C181.912 40.0113 181.578 39.5976 181.362 39.1443H181.226V40.7933H179.169V28.0263H181.226V33.3133H181.362C181.555 32.8826 181.878 32.4916 182.331 32.1403C182.785 31.7776 183.402 31.5963 184.184 31.5963C185.352 31.5963 186.253 32.0269 186.887 32.8883C187.522 33.7383 187.839 34.8659 187.839 36.2713C187.839 37.6539 187.522 38.7759 186.887 39.6373C186.253 40.4986 185.363 40.9293 184.218 40.9293ZM183.487 39.2633C184.247 39.2633 184.813 38.9743 185.187 38.3963C185.561 37.8069 185.748 37.0986 185.748 36.2713C185.748 35.4439 185.561 34.7469 185.187 34.1803C184.813 33.6023 184.247 33.3133 183.487 33.3133C182.751 33.3133 182.19 33.6023 181.804 34.1803C181.43 34.7469 181.243 35.4439 181.243 36.2713C181.243 37.0986 181.43 37.8069 181.804 38.3963C182.19 38.9743 182.751 39.2633 183.487 39.2633ZM192.841 40.9293C191.708 40.9293 190.824 40.4986 190.189 39.6373C189.555 38.7759 189.237 37.6539 189.237 36.2713C189.237 34.8659 189.56 33.7383 190.206 32.8883C190.852 32.0269 191.748 31.5963 192.892 31.5963C193.674 31.5963 194.286 31.7776 194.728 32.1403C195.182 32.4916 195.505 32.8826 195.697 33.3133H195.833V31.8173H197.907V40.7933H195.833V39.1443H195.697C195.482 39.6089 195.148 40.0226 194.694 40.3853C194.241 40.7479 193.623 40.9293 192.841 40.9293ZM193.572 39.2293C194.309 39.2293 194.864 38.9403 195.238 38.3623C195.624 37.7843 195.816 37.0816 195.816 36.2543C195.816 35.4269 195.624 34.7299 195.238 34.1633C194.864 33.5853 194.309 33.2963 193.572 33.2963C192.813 33.2963 192.246 33.5853 191.872 34.1633C191.51 34.7299 191.328 35.4269 191.328 36.2543C191.328 37.0816 191.515 37.7843 191.889 38.3623C192.263 38.9403 192.824 39.2293 193.572 39.2293ZM193.827 30.5253C193.113 30.5253 192.507 30.3609 192.008 30.0323C191.521 29.6923 191.107 29.1936 190.767 28.5363H192.467C192.739 29.0916 193.193 29.3693 193.827 29.3693C194.462 29.3693 194.915 29.0916 195.187 28.5363H196.887C196.547 29.1936 196.128 29.6923 195.629 30.0323C195.131 30.3609 194.53 30.5253 193.827 30.5253ZM190.835 24.6433H192.926L194.609 27.8733L192.977 27.8903L190.835 24.6433ZM200.137 31.8173H202.211V33.2793H202.33C202.545 32.8146 202.885 32.4179 203.35 32.0893C203.826 31.7606 204.404 31.5963 205.084 31.5963C206.24 31.5963 207.073 31.9703 207.583 32.7183C208.093 33.4663 208.348 34.3333 208.348 35.3193V40.7933H206.291V35.6423C206.291 34.9056 206.11 34.3389 205.747 33.9423C205.396 33.5343 204.908 33.3303 204.285 33.3303C203.616 33.3303 203.101 33.5456 202.738 33.9763C202.387 34.4069 202.211 34.9623 202.211 35.6423V40.7933H200.137V31.8173ZM214.696 44.4993C214.084 44.4993 213.557 44.4143 213.115 44.2443V42.5783C213.229 42.6123 213.416 42.6463 213.676 42.6803C213.937 42.7256 214.186 42.7483 214.424 42.7483C215.252 42.7483 215.847 42.5103 216.209 42.0343C216.572 41.5696 216.753 40.9803 216.753 40.2663V38.9403H216.617C216.402 39.3936 216.056 39.8016 215.58 40.1643C215.104 40.5156 214.498 40.6913 213.761 40.6913C213.025 40.6913 212.384 40.5043 211.84 40.1303C211.296 39.7449 210.877 39.2123 210.582 38.5323C210.288 37.8409 210.14 37.0476 210.14 36.1523C210.14 35.2456 210.288 34.4466 210.582 33.7553C210.877 33.0639 211.296 32.5313 211.84 32.1573C212.384 31.7719 213.025 31.5793 213.761 31.5793C214.521 31.5793 215.138 31.7719 215.614 32.1573C216.102 32.5313 216.436 32.9449 216.617 33.3983H216.753V31.8343H218.81V40.2663C218.81 40.8669 218.697 41.4846 218.47 42.1193C218.255 42.7539 217.841 43.3093 217.229 43.7853C216.617 44.2613 215.773 44.4993 214.696 44.4993ZM214.509 38.9913C215.235 38.9913 215.784 38.7079 216.158 38.1413C216.544 37.5633 216.736 36.8889 216.736 36.1183C216.736 35.3589 216.544 34.6959 216.158 34.1293C215.784 33.5626 215.235 33.2793 214.509 33.2793C213.773 33.2793 213.212 33.5626 212.826 34.1293C212.452 34.6846 212.265 35.3476 212.265 36.1183C212.265 36.9003 212.452 37.5746 212.826 38.1413C213.2 38.7079 213.761 38.9913 214.509 38.9913ZM229.752 40.9293C228.619 40.9293 227.661 40.6403 226.879 40.0623C226.109 39.4729 225.536 38.7136 225.162 37.7843C224.788 36.8549 224.601 35.8689 224.601 34.8263C224.601 33.7609 224.794 32.7579 225.179 31.8173C225.565 30.8766 226.16 30.1173 226.964 29.5393C227.769 28.9499 228.766 28.6553 229.956 28.6553C231.294 28.6553 232.382 29.0236 233.22 29.7603C234.07 30.4969 234.665 31.4376 235.005 32.5823H232.829C232.637 31.9249 232.302 31.4093 231.826 31.0353C231.35 30.6613 230.733 30.4743 229.973 30.4743C228.931 30.4743 228.12 30.8709 227.542 31.6643C226.976 32.4576 226.692 33.5229 226.692 34.8603C226.692 36.2429 226.987 37.3196 227.576 38.0903C228.177 38.8609 229.004 39.2463 230.058 39.2463C230.988 39.2463 231.707 38.9686 232.217 38.4133C232.739 37.8466 233.011 37.1439 233.033 36.3053V35.9653H230.262V34.4523H235.022V40.7933H233.458V38.9573H233.322C233.118 39.3653 232.756 39.7959 232.234 40.2493C231.713 40.7026 230.886 40.9293 229.752 40.9293ZM240.986 40.9293C240.057 40.9293 239.269 40.7139 238.623 40.2833C237.989 39.8526 237.513 39.2859 237.195 38.5833C236.878 37.8806 236.719 37.1099 236.719 36.2713C236.719 35.4439 236.878 34.6789 237.195 33.9763C237.513 33.2623 237.989 32.6899 238.623 32.2593C239.269 31.8286 240.057 31.6133 240.986 31.6133C241.916 31.6133 242.698 31.8286 243.332 32.2593C243.978 32.6899 244.454 33.2566 244.76 33.9593C245.078 34.6619 245.236 35.4269 245.236 36.2543C245.236 37.0816 245.078 37.8523 244.76 38.5663C244.454 39.2803 243.978 39.8526 243.332 40.2833C242.698 40.7139 241.916 40.9293 240.986 40.9293ZM240.986 39.2293C241.7 39.2293 242.25 38.9459 242.635 38.3793C243.021 37.8126 243.213 37.1043 243.213 36.2543C243.213 35.4043 243.021 34.7016 242.635 34.1463C242.25 33.5796 241.7 33.2963 240.986 33.2963C240.261 33.2963 239.706 33.5796 239.32 34.1463C238.946 34.7016 238.759 35.4043 238.759 36.2543C238.759 37.1043 238.952 37.8126 239.337 38.3793C239.723 38.9459 240.272 39.2293 240.986 39.2293ZM251.014 40.9293C250.084 40.9293 249.297 40.7139 248.651 40.2833C248.016 39.8526 247.54 39.2859 247.223 38.5833C246.905 37.8806 246.747 37.1099 246.747 36.2713C246.747 35.4439 246.905 34.6789 247.223 33.9763C247.54 33.2623 248.016 32.6899 248.651 32.2593C249.297 31.8286 250.084 31.6133 251.014 31.6133C251.943 31.6133 252.725 31.8286 253.36 32.2593C254.006 32.6899 254.482 33.2566 254.788 33.9593C255.105 34.6619 255.264 35.4269 255.264 36.2543C255.264 37.0816 255.105 37.8523 254.788 38.5663C254.482 39.2803 254.006 39.8526 253.36 40.2833C252.725 40.7139 251.943 40.9293 251.014 40.9293ZM251.014 39.2293C251.728 39.2293 252.277 38.9459 252.663 38.3793C253.048 37.8126 253.241 37.1043 253.241 36.2543C253.241 35.4043 253.048 34.7016 252.663 34.1463C252.277 33.5796 251.728 33.2963 251.014 33.2963C250.288 33.2963 249.733 33.5796 249.348 34.1463C248.974 34.7016 248.787 35.4043 248.787 36.2543C248.787 37.1043 248.979 37.8126 249.365 38.3793C249.75 38.9459 250.3 39.2293 251.014 39.2293ZM261.33 44.4993C260.718 44.4993 260.191 44.4143 259.749 44.2443V42.5783C259.862 42.6123 260.049 42.6463 260.31 42.6803C260.571 42.7256 260.82 42.7483 261.058 42.7483C261.885 42.7483 262.48 42.5103 262.843 42.0343C263.206 41.5696 263.387 40.9803 263.387 40.2663V38.9403H263.251C263.036 39.3936 262.69 39.8016 262.214 40.1643C261.738 40.5156 261.132 40.6913 260.395 40.6913C259.658 40.6913 259.018 40.5043 258.474 40.1303C257.93 39.7449 257.511 39.2123 257.216 38.5323C256.921 37.8409 256.774 37.0476 256.774 36.1523C256.774 35.2456 256.921 34.4466 257.216 33.7553C257.511 33.0639 257.93 32.5313 258.474 32.1573C259.018 31.7719 259.658 31.5793 260.395 31.5793C261.154 31.5793 261.772 31.7719 262.248 32.1573C262.735 32.5313 263.07 32.9449 263.251 33.3983H263.387V31.8343H265.444V40.2663C265.444 40.8669 265.331 41.4846 265.104 42.1193C264.889 42.7539 264.475 43.3093 263.863 43.7853C263.251 44.2613 262.407 44.4993 261.33 44.4993ZM261.143 38.9913C261.868 38.9913 262.418 38.7079 262.792 38.1413C263.177 37.5633 263.37 36.8889 263.37 36.1183C263.37 35.3589 263.177 34.6959 262.792 34.1293C262.418 33.5626 261.868 33.2793 261.143 33.2793C260.406 33.2793 259.845 33.5626 259.46 34.1293C259.086 34.6846 258.899 35.3476 258.899 36.1183C258.899 36.9003 259.086 37.5746 259.46 38.1413C259.834 38.7079 260.395 38.9913 261.143 38.9913ZM270.408 40.8613C269.626 40.8613 269.048 40.7423 268.674 40.5043C268.3 40.2549 268.062 39.9489 267.96 39.5863C267.869 39.2123 267.824 38.7363 267.824 38.1583V28.0433H269.881V37.7673C269.881 38.1866 269.898 38.4983 269.932 38.7023C269.977 38.9063 270.091 39.0706 270.272 39.1953C270.453 39.3086 270.742 39.3653 271.139 39.3653C271.286 39.3653 271.462 39.3539 271.666 39.3313V40.7593C271.303 40.8273 270.884 40.8613 270.408 40.8613ZM277.294 40.9293C276.364 40.9293 275.577 40.7083 274.931 40.2663C274.296 39.8243 273.82 39.2519 273.503 38.5493C273.197 37.8353 273.044 37.0759 273.044 36.2713C273.044 35.4553 273.197 34.6959 273.503 33.9933C273.82 33.2793 274.296 32.7013 274.931 32.2593C275.577 31.8173 276.37 31.5963 277.311 31.5963C278.557 31.5963 279.543 31.9986 280.269 32.8033C281.005 33.6079 281.374 34.7696 281.374 36.2883V36.8493H275.05V36.9853C275.05 37.3819 275.14 37.7559 275.322 38.1073C275.514 38.4586 275.775 38.7419 276.104 38.9573C276.444 39.1613 276.829 39.2633 277.26 39.2633C277.747 39.2633 278.161 39.1499 278.501 38.9233C278.841 38.6853 279.096 38.3679 279.266 37.9713H281.289C281.051 38.8326 280.592 39.5409 279.912 40.0963C279.232 40.6516 278.359 40.9293 277.294 40.9293ZM279.385 35.4893C279.362 34.6733 279.158 34.0783 278.773 33.7043C278.399 33.3189 277.906 33.1263 277.294 33.1263C276.636 33.1263 276.109 33.3416 275.713 33.7723C275.327 34.1916 275.123 34.7639 275.101 35.4893H279.385Z" fill="white"/>
<g clip-path="url(#clip0)">
<path d="M26.7605 37.7513L25.6748 41.8043L21.7067 41.8882C20.5208 39.6887 19.8481 37.1721 19.8481 34.4978C19.8481 31.9118 20.4771 29.4732 21.5919 27.3259H21.5927L25.1254 27.9735L26.673 31.4851C26.3491 32.4294 26.1726 33.443 26.1726 34.4978C26.1727 35.6426 26.38 36.7394 26.7605 37.7513Z" fill="#FBBB00"/>
<path d="M50.7655 31.5845C50.9446 32.5279 51.038 33.5022 51.038 34.4979C51.038 35.6144 50.9206 36.7035 50.697 37.754C49.9378 41.3288 47.9541 44.4504 45.2062 46.6594L45.2054 46.6585L40.7557 46.4315L40.1259 42.5001C41.9493 41.4308 43.3743 39.7573 44.1249 37.754H35.7859V31.5845H44.2466H50.7655Z" fill="#518EF8"/>
<path d="M45.2052 46.6585L45.206 46.6594C42.5335 48.8075 39.1386 50.0928 35.4429 50.0928C29.504 50.0928 24.3406 46.7734 21.7065 41.8884L26.7603 37.7515C28.0773 41.2663 31.4679 43.7684 35.4429 43.7684C37.1515 43.7684 38.7522 43.3065 40.1257 42.5002L45.2052 46.6585Z" fill="#28B446"/>
<path d="M45.3972 22.4932L40.3451 26.6293C38.9236 25.7407 37.2433 25.2274 35.443 25.2274C31.378 25.2274 27.924 27.8443 26.673 31.4851L21.5926 27.3259H21.5918C24.1873 22.3218 29.4158 18.903 35.443 18.903C39.2269 18.903 42.6964 20.2508 45.3972 22.4932Z" fill="#F14336"/>
</g>
<defs>
<linearGradient id="paint0_linear" x1="182.886" y1="0" x2="182.886" y2="68.0506" gradientUnits="userSpaceOnUse">
<stop stop-color="#F75F44"/>
<stop offset="1" stop-color="#B7351F"/>
</linearGradient>
<clipPath id="clip0">
<rect x="19.8481" y="18.903" width="31.1899" height="31.1899" fill="white"/>
</clipPath>
</defs>
</svg>
